<svg width="150" height="78" viewBox="0 0 150 78" fill="none" xmlns="http://www.w3.org/2000/svg">
<circle cx="2.08346" cy="11.1018" r="2.08346" fill="#FFE2AA"/>
<circle cx="83.1018" cy="11.1018" r="2.08346" fill="#FFE2AA"/>
<circle cx="2.08346" cy="27.3054" r="2.08346" fill="#FFE2AA"/>
<circle cx="83.1018" cy="27.3054" r="2.08346" fill="#FFE2AA"/>
<circle cx="2.08346" cy="43.5092" r="2.08346" fill="#FFE2AA"/>
<circle cx="83.1018" cy="43.5092" r="2.08346" fill="#FFE2AA"/>
<circle cx="2.08346" cy="59.7129" r="2.08346" fill="#FFE2AA"/>
<circle cx="83.1018" cy="59.7129" r="2.08346" fill="#FFE2AA"/>
<circle cx="2.08346" cy="75.9165" r="2.08346" fill="#FFE2AA"/>
<circle cx="83.1018" cy="75.9165" r="2.08346" fill="#FFE2AA"/>
<circle cx="18.2871" cy="11.1018" r="2.08346" fill="#FFE2AA"/>
<circle cx="99.3055" cy="11.1018" r="2.08346" fill="#FFE2AA"/>
<circle cx="18.2871" cy="27.3054" r="2.08346" fill="#FFE2AA"/>
<circle cx="99.3055" cy="27.3054" r="2.08346" fill="#FFE2AA"/>
<circle cx="18.2871" cy="43.5092" r="2.08346" fill="#FFE2AA"/>
<circle cx="99.3055" cy="43.5092" r="2.08346" fill="#FFE2AA"/>
<circle cx="18.2871" cy="59.7129" r="2.08346" fill="#FFE2AA"/>
<circle cx="99.3055" cy="59.7129" r="2.08346" fill="#FFE2AA"/>
<circle cx="18.2871" cy="75.9165" r="2.08346" fill="#FFE2AA"/>
<circle cx="99.3055" cy="75.9165" r="2.08346" fill="#FFE2AA"/>
<circle cx="34.4908" cy="11.1018" r="2.08346" fill="#FFE2AA"/>
<circle cx="115.509" cy="11.1018" r="2.08346" fill="#FFE2AA"/>
<circle cx="34.4908" cy="27.3054" r="2.08346" fill="#FFE2AA"/>
<circle cx="115.509" cy="27.3054" r="2.08346" fill="#FFE2AA"/>
<circle cx="34.4908" cy="43.5092" r="2.08346" fill="#FFE2AA"/>
<circle cx="115.509" cy="43.5092" r="2.08346" fill="#FFE2AA"/>
<circle cx="34.4908" cy="59.7129" r="2.08346" fill="#FFE2AA"/>
<circle cx="115.509" cy="59.7129" r="2.08346" fill="#FFE2AA"/>
<circle cx="34.4908" cy="75.9165" r="2.08346" fill="#FFE2AA"/>
<circle cx="115.509" cy="75.9165" r="2.08346" fill="#FFE2AA"/>
<circle cx="50.6945" cy="11.1018" r="2.08346" fill="#FFE2AA"/>
<circle cx="131.713" cy="11.1018" r="2.08346" fill="#FFE2AA"/>
<circle cx="50.6945" cy="27.3054" r="2.08346" fill="#FFE2AA"/>
<circle cx="131.713" cy="27.3054" r="2.08346" fill="#FFE2AA"/>
<circle cx="50.6945" cy="43.5092" r="2.08346" fill="#FFE2AA"/>
<circle cx="131.713" cy="43.5092" r="2.08346" fill="#FFE2AA"/>
<circle cx="50.6945" cy="59.7129" r="2.08346" fill="#FFE2AA"/>
<circle cx="131.713" cy="59.7129" r="2.08346" fill="#FFE2AA"/>
<circle cx="50.6945" cy="75.9165" r="2.08346" fill="#FFE2AA"/>
<circle cx="131.713" cy="75.9165" r="2.08346" fill="#FFE2AA"/>
<circle cx="66.8981" cy="11.1018" r="2.08346" fill="#FFE2AA"/>
<circle cx="147.916" cy="11.1018" r="2.08346" fill="#FFE2AA"/>
<circle cx="66.8981" cy="27.3054" r="2.08346" fill="#FFE2AA"/>
<circle cx="147.916" cy="27.3054" r="2.08346" fill="#FFE2AA"/>
<circle cx="66.8981" cy="43.5092" r="2.08346" fill="#FFE2AA"/>
<circle cx="147.916" cy="43.5092" r="2.08346" fill="#FFE2AA"/>
<circle cx="66.8981" cy="59.7129" r="2.08346" fill="#FFE2AA"/>
<circle cx="147.916" cy="59.7129" r="2.08346" fill="#FFE2AA"/>
<circle cx="66.8981" cy="75.9165" r="2.08346" fill="#FFE2AA"/>
<circle cx="147.916" cy="75.9165" r="2.08346" fill="#FFE2AA"/>
</svg>
